<?xml version="1.0" encoding="UTF-8"?>
<svg id="Layer_2" data-name="Layer 2" xmlns="http://www.w3.org/2000/svg" viewBox="0 0 119.47 119.45">
  <defs>
    <style>
      .cls-1 {
        fill: #fff;
        stroke-width: 0px;
      }
    </style>
  </defs>
  <g id="Layer_1-2" data-name="Layer 1">
    <g>
      <path class="cls-1" d="M104.92,0H14.58C6.52,0,0,6.52,0,14.55v90.34c0,8.03,6.52,14.55,14.58,14.55h14.34c-15.3-10.05-23.24-27.85-23.24-48.13,0-31.39,19.03-56.89,55.03-56.89s49.48,23.02,51.33,43.59h-25.81c-1.54-9.43-8.8-21.34-25.21-21.34-18.4,0-29.37,15.47-29.37,34.64s10.97,34.64,29.37,34.64c30.24,0,58.45-24.89,58.45-24.89V14.55c0-8.03-6.52-14.55-14.55-14.55Z"/>
      <path class="cls-1" d="M93.04,119.45h11.88c8.03,0,14.55-6.52,14.55-14.55v-23.84c-8.9,17.56-15.71,30.55-26.43,38.39Z"/>
    </g>
  </g>
</svg>