<svg width="100" height="100" viewBox="0 0 100 100" fill="none" xmlns="http://www.w3.org/2000/svg">
  <g transform="translate(30, 30)">
    <path fill-rule="evenodd" clip-rule="evenodd" d="M18.8216 18.8215C19.4724 18.1707 20.5277 18.1707 21.1786 18.8215L27.8453 25.4882C28.4961 26.1391 28.4961 27.1943 27.8453 27.8452C27.1944 28.4961 26.1391 28.4961 25.4882 27.8452L20.0001 22.3571L14.5119 27.8452C13.8611 28.4961 12.8058 28.4961 12.1549 27.8452C11.504 27.1943 11.504 26.1391 12.1549 25.4882L18.8216 18.8215Z" fill="#B0B0B0"/>
    <path fill-rule="evenodd" clip-rule="evenodd" d="M19.9999 18.3334C20.9204 18.3334 21.6666 19.0796 21.6666 20V35C21.6666 35.9205 20.9204 36.6667 19.9999 36.6667C19.0794 36.6667 18.3333 35.9205 18.3333 35V20C18.3333 19.0796 19.0794 18.3334 19.9999 18.3334Z" fill="#B0B0B0"/>
    <path fill-rule="evenodd" clip-rule="evenodd" d="M14.438 3.34843C16.7038 3.26495 18.959 3.69621 21.0342 4.60979C23.1093 5.52337 24.9504 6.8955 26.4189 8.62301C27.6046 10.0179 28.5226 11.6152 29.1309 13.3342H29.9991C32.2208 13.3356 34.3799 14.0769 36.1336 15.4411C37.8872 16.8052 39.1366 18.7145 39.6846 20.8675C40.2326 23.0206 40.048 25.2949 39.16 27.3314C38.2719 29.3679 36.7309 31.0507 34.7802 32.1142C33.972 32.5548 32.9597 32.2568 32.5191 31.4486C32.0785 30.6404 32.3765 29.6281 33.1847 29.1875C34.4851 28.4785 35.5125 27.3567 36.1045 25.999C36.6966 24.6413 36.8196 23.1251 36.4543 21.6897C36.0889 20.2544 35.256 18.9815 34.0869 18.0721C32.9178 17.1627 31.4792 16.6685 29.998 16.6675H27.8991C27.1393 16.6675 26.4757 16.1536 26.2855 15.418C25.8441 13.7107 25.0214 12.1256 23.8792 10.782C22.737 9.43833 21.3051 8.37112 19.6911 7.66056C18.0771 6.95 16.323 6.61457 14.5607 6.6795C12.7984 6.74443 11.0737 7.20803 9.51639 8.03544C7.95905 8.86284 6.60955 10.0325 5.56933 11.4566C4.52912 12.8806 3.82527 14.5219 3.51069 16.2571C3.19611 17.9923 3.279 19.7763 3.75311 21.4748C4.22723 23.1734 5.08024 24.7424 6.24801 26.0638C6.85754 26.7536 6.79252 27.8069 6.10278 28.4164C5.41303 29.0259 4.35976 28.9609 3.75023 28.2711C2.24881 26.5721 1.15208 24.5549 0.542506 22.371C-0.0670721 20.1871 -0.173639 17.8935 0.230818 15.6625C0.635274 13.4315 1.54023 11.3213 2.87765 9.49037C4.21506 7.65947 5.95014 6.15558 7.95244 5.09177C9.95473 4.02796 12.1721 3.43191 14.438 3.34843Z" fill="#B0B0B0"/>
  </g>
</svg>