<?xml version="1.0" encoding="UTF-8"?>
<svg id="Layer_2" data-name="Layer 2" xmlns="http://www.w3.org/2000/svg" viewBox="0 0 311.12 83.98">
  <defs>
    <style>
      .cls-1 {
        fill: #fff;
        stroke-width: 0px;
      }
    </style>
  </defs>
  <g id="Layer_1-2" data-name="Layer 1">
    <g>
      <g>
        <path class="cls-1" d="M129.5,28.84c8.06,0,11.63,5.85,12.39,10.49h12.7c-.91-10.11-8.44-21.44-25.24-21.44-17.72,0-27.07,12.55-27.07,27.98s9.35,27.98,27.07,27.98c16.8,0,24.33-11.33,25.24-21.44h-12.7c-.76,4.64-4.33,10.49-12.39,10.49-9.05,0-14.45-7.6-14.45-17.03s5.4-17.03,14.45-17.03Z"/>
        <path class="cls-1" d="M178.31,31.28c-13.24,0-21.29,9.57-21.29,21.28s8.06,21.29,21.29,21.29,21.29-9.58,21.29-21.29-8.06-21.28-21.29-21.28ZM178.31,63.51c-6.01,0-9.13-5.02-9.13-10.95s3.12-10.95,9.13-10.95,9.12,5.02,9.12,10.95-3.11,10.95-9.12,10.95Z"/>
        <path class="cls-1" d="M228,31.28c-6.92,0-11.4,5.4-13.31,9.43-.3.61-.68,1.52-1.6,1.14-.99-.38-.23-1.9.38-3.12.61-1.22.99-2.51.99-4.33v-16.5h-12.17v54.74h12.17v-15.43c0-9.28,4.49-15.59,9.43-15.59,4.33,0,6.39,2.51,6.39,11.56v19.46h12.16v-24.33c0-11.4-5.78-17.03-14.45-17.03Z"/>
        <path class="cls-1" d="M273.14,47.93c0,9.28-4.49,15.59-9.43,15.59-4.33,0-6.39-2.51-6.39-11.56v-19.46h-12.16v24.33c0,11.4,5.78,17.03,14.45,17.03,6.92,0,11.33-5.47,13.3-9.43.31-.61.68-1.52,1.6-1.14.99.38.23,1.9-.38,3.12-.61,1.22-.99,2.51-.99,4.33v1.9h12.16v-40.14h-12.16v15.43Z"/>
        <path class="cls-1" d="M311.12,42.23v-9.73h-10.95v-10.95l-12.17,10.95v27.83c0,9.66,3.8,12.32,11.86,12.32h11.25v-9.73h-7.3c-3.5,0-3.65-.15-3.65-3.95v-16.73h10.95Z"/>
      </g>
      <g>
        <path class="cls-1" d="M73.76,0H10.25C4.58,0,0,4.58,0,10.23v63.52c0,5.65,4.58,10.23,10.25,10.23h10.08c-10.76-7.07-16.34-19.58-16.34-33.84C3.99,28.07,17.37,10.15,42.68,10.15s34.79,16.18,36.09,30.64h-18.15c-1.08-6.63-6.19-15-17.72-15-12.94,0-20.65,10.87-20.65,24.35s7.71,24.35,20.65,24.35c21.26,0,41.09-17.5,41.09-17.5V10.23c0-5.65-4.58-10.23-10.23-10.23Z"/>
        <path class="cls-1" d="M65.41,83.98h8.35c5.65,0,10.23-4.58,10.23-10.23v-16.76c-6.26,12.34-11.04,21.48-18.58,26.99Z"/>
      </g>
    </g>
  </g>
</svg>